<svg width="56" height="56" viewBox="0 0 56 56" fill="none" xmlns="http://www.w3.org/2000/svg">
<path d="M18.2 4.66602H37.8C45.2667 4.66602 51.3333 10.7327 51.3333 18.1994V37.7994C51.3333 41.3886 49.9075 44.8309 47.3695 47.3689C44.8315 49.9069 41.3893 51.3327 37.8 51.3327H18.2C10.7333 51.3327 4.66667 45.266 4.66667 37.7994V18.1994C4.66667 14.6101 6.0925 11.1678 8.63049 8.62984C11.1685 6.09185 14.6107 4.66602 18.2 4.66602ZM17.7333 9.33268C15.5055 9.33268 13.3689 10.2177 11.7936 11.793C10.2183 13.3683 9.33334 15.5049 9.33334 17.7327V38.266C9.33334 42.9094 13.09 46.666 17.7333 46.666H38.2667C40.4945 46.666 42.6311 45.781 44.2064 44.2057C45.7817 42.6304 46.6667 40.4938 46.6667 38.266V17.7327C46.6667 13.0893 42.91 9.33268 38.2667 9.33268H17.7333ZM40.25 12.8327C41.0236 12.8327 41.7654 13.14 42.3124 13.687C42.8594 14.2339 43.1667 14.9758 43.1667 15.7493C43.1667 16.5229 42.8594 17.2648 42.3124 17.8117C41.7654 18.3587 41.0236 18.666 40.25 18.666C39.4765 18.666 38.7346 18.3587 38.1876 17.8117C37.6406 17.2648 37.3333 16.5229 37.3333 15.7493C37.3333 14.9758 37.6406 14.2339 38.1876 13.687C38.7346 13.14 39.4765 12.8327 40.25 12.8327ZM28 16.3327C31.0942 16.3327 34.0617 17.5618 36.2496 19.7498C38.4375 21.9377 39.6667 24.9052 39.6667 27.9994C39.6667 31.0935 38.4375 34.061 36.2496 36.2489C34.0617 38.4369 31.0942 39.666 28 39.666C24.9058 39.666 21.9384 38.4369 19.7504 36.2489C17.5625 34.061 16.3333 31.0935 16.3333 27.9994C16.3333 24.9052 17.5625 21.9377 19.7504 19.7498C21.9384 17.5618 24.9058 16.3327 28 16.3327ZM28 20.9993C26.1435 20.9993 24.363 21.7368 23.0503 23.0496C21.7375 24.3624 21 26.1428 21 27.9994C21 29.8559 21.7375 31.6363 23.0503 32.9491C24.363 34.2619 26.1435 34.9994 28 34.9994C29.8565 34.9994 31.637 34.2619 32.9498 32.9491C34.2625 31.6363 35 29.8559 35 27.9994C35 26.1428 34.2625 24.3624 32.9498 23.0496C31.637 21.7368 29.8565 20.9993 28 20.9993Z" fill="white"/>
</svg>
