<svg width="256" height="30" viewBox="0 0 256 30" fill="none" xmlns="http://www.w3.org/2000/svg">
<path d="M15.0234 0C15.7334 0.697703 18.3254 6.21816 19.0398 7.60466L30.1406 29.1943H15.2721H0C1.52808 26.0436 3.21388 22.948 4.81829 19.8342L15.0234 0Z" fill="white"/>
<path d="M116.18 3.87314C117.325 4.55791 120.434 7.83445 121.671 9.00842L135.662 22.2504V4.82875H139.273V29.9998C139.075 30.0034 138.987 29.928 138.838 29.806C136.685 28.0481 134.681 25.8989 132.655 23.9874L119.81 11.8847L119.809 29.0712H116.18V3.87314Z" fill="white"/>
<path d="M150.546 12.8603C150.757 12.8454 150.968 12.8346 151.18 12.8277C153.689 12.7473 155.99 13.4814 157.836 15.2204C159.784 17.0549 160.481 19.3204 160.557 21.9339H145.962C146.251 22.9983 146.609 23.9402 147.369 24.7651C148.43 25.9181 150.003 26.5373 151.552 26.6C153.454 26.6769 155.029 25.9564 156.406 24.6874L156.946 24.1311L159.606 25.9831C157.976 27.8401 155.989 29.0684 153.528 29.4435C150.934 29.8389 148.219 29.4344 146.077 27.8514C144.307 26.5439 143.115 24.6429 142.789 22.4612C142.467 20.3135 142.96 18.1766 144.259 16.4289C145.829 14.3171 147.984 13.2376 150.546 12.8603Z" fill="white"/>
<path d="M60.9873 4.33658H64.6163V15.768C64.674 15.7084 64.7321 15.6492 64.7905 15.5904C66.3691 14.0038 68.0184 12.8137 70.3351 12.8117C71.8257 12.8104 73.2013 13.2417 74.2711 14.3111C74.9716 15.01 75.4672 15.8877 75.7037 16.8486C76.0872 18.4238 75.8962 20.3031 75.8921 21.9244L75.8774 29.0713H72.2484V21.9954L72.2652 20.6176C72.2775 19.2245 72.3987 17.5347 71.3258 16.4592C70.7728 15.9049 70.0315 15.6624 69.2615 15.6608C68.0153 15.6583 66.7989 16.2254 65.9254 17.1008C65.4236 17.6039 65.0284 18.2088 64.8388 18.8977C64.2934 20.8795 64.6106 26.6438 64.6163 29.0713H60.9873V4.33658Z" fill="white"/>
<path d="M226.972 4.33658H230.561V20.1214C232.957 17.9413 235.235 15.5879 237.551 13.3198H242.307L234.915 20.5494C236.446 22.3182 237.988 24.0775 239.54 25.8272C240.439 26.9432 241.442 27.9976 242.393 29.0713H237.876C235.481 26.2577 232.984 23.5249 230.561 20.7343V29.0713H226.972V4.33658Z" fill="white"/>
<path d="M203.465 16.0586C204.594 15.9359 205.736 16.0199 206.835 16.3069C208.845 16.8529 210.668 18.1463 211.711 19.9693C212.596 21.4921 212.829 23.3078 212.355 25.0044C211.764 27.1407 210.273 28.5298 208.4 29.5898C207.22 27.8602 206.175 25.9918 205.075 24.2069L204.594 23.457L204.421 23.4402L200.826 29.7128C200.32 29.4526 199.833 29.1573 199.369 28.8288C197.877 27.757 196.792 26.1265 196.495 24.305C196.206 22.5289 196.655 20.7685 197.706 19.3148C199.1 17.3854 201.168 16.4258 203.465 16.0586Z" fill="white"/>
<path d="M186.222 12.899C186.783 13.3322 190.461 21.6873 191.052 22.9295L196.076 13.3198H199.25C198.407 15.1182 197.406 16.8726 196.481 18.6329L190.86 29.3828L186.379 19.8159L186.185 19.8777C184.684 23.0242 183.26 26.211 181.706 29.3313C178.804 24.0721 176.12 18.6519 173.353 13.3198H176.529L181.546 22.8952L186.222 12.899Z" fill="white"/>
<path d="M40.8991 12.8559C41.1925 12.8147 41.515 12.829 41.8112 12.8287C43.3152 12.8276 44.7968 13.2954 45.8743 14.3773C46.5117 15.0114 46.9598 15.8104 47.1688 16.6849C47.5281 18.2095 47.3371 19.9872 47.3352 21.5543L47.3275 29.0713H43.6986L43.7187 22.0484C43.7221 20.778 43.8253 19.3972 43.6243 18.1436C43.549 17.6738 43.3936 17.2383 43.1037 16.8556C42.5851 16.1706 41.7617 15.8006 40.9269 15.6882C39.7216 15.526 38.7109 16.0276 37.7787 16.7371C37.101 17.4304 36.656 18.0848 36.3808 19.0223C35.8058 20.9801 36.1216 26.666 36.1292 29.0713H32.5605V13.3199H36.1089V15.8554C37.5662 14.4745 38.8696 13.2657 40.8991 12.8559Z" fill="white"/>
<path d="M248.73 12.8741C251.352 12.5505 253.326 13.6753 255.351 15.1903C254.537 15.8469 253.728 16.5094 252.923 17.1775C251.648 16.2788 250.562 15.5755 248.926 15.8457C248.424 15.9287 247.991 16.1306 247.695 16.5577C247.548 16.7689 247.433 17.0245 247.48 17.2864C247.752 18.7722 252.047 20.0939 253.328 20.9665C254.369 21.676 255.257 22.6444 255.495 23.9176C255.698 25.0011 255.355 26.151 254.74 27.048C253.701 28.559 252.096 29.2364 250.356 29.5635C249.888 29.569 249.409 29.5799 248.94 29.5484C246.633 29.3927 245.081 28.1801 243.615 26.5097L246.492 25.234C246.705 25.4099 246.924 25.5768 247.151 25.7339C248.156 26.4383 249.116 26.7297 250.339 26.5108C251.077 26.3786 251.74 26.0431 252.174 25.4094C252.347 25.1562 252.466 24.8345 252.4 24.5245C252.062 22.9249 247.818 21.7077 246.443 20.8359C245.439 20.198 244.564 19.3402 244.299 18.14C244.079 17.1376 244.346 16.0185 244.895 15.1627C245.768 13.8059 247.216 13.2072 248.73 12.8741Z" fill="white"/>
<path d="M165.074 8.76663H168.684V13.3198H172.232V16.3962H168.684V28.4867L168.653 28.8774C168.011 29.3539 165.914 29.0844 165.074 29.0712V16.3962H162.243V13.3198H165.074V8.76663Z" fill="white"/>
<path d="M52.2307 8.76663H55.841V13.3198H59.3889V16.3962H55.841V28.4867L55.8099 28.8774C55.1685 29.3539 53.0713 29.0844 52.2307 29.0712V16.3962H49.4004V13.3198H52.2307V8.76663Z" fill="white"/>
<path d="M97.1074 4.33658H100.736V29.0713H97.1074V4.33658Z" fill="white"/>
<path d="M88.4941 4.33658H92.1231V29.0713H88.4941V4.33658Z" fill="white"/>
<path d="M221.315 12.8636C222.181 12.7659 223.019 12.8762 223.872 13.0219L222.76 16.4626C222.269 16.3798 221.774 16.3079 221.275 16.3063C220.177 16.3025 219.096 16.7049 218.319 17.4853C217.799 18.0157 217.435 18.6776 217.264 19.3999C216.836 21.1916 217.124 27.0082 217.13 29.0712C215.929 29.0775 214.669 29.1571 213.478 29.026V13.3198H217.027L217.029 16.4445C218.141 14.6529 219.224 13.3737 221.315 12.8636Z" fill="white"/>
<path d="M79.8369 13.3198H83.4061V29.0713H79.8369V13.3198Z" fill="white"/>
<path d="M80.9427 5.70607C81.6113 5.67401 82.1963 5.64939 82.8222 5.93643C83.4697 6.23348 84.0107 6.77115 84.2576 7.4438C84.4735 8.016 84.4479 8.65147 84.1868 9.20449C83.7913 10.0462 83.0685 10.4318 82.2407 10.7293C81.6462 10.7571 81.0767 10.7619 80.5154 10.5284C79.8472 10.2502 79.2671 9.7414 78.9917 9.06175C78.7595 8.49432 78.7676 7.857 79.0141 7.29576C79.3946 6.43489 80.115 6.03203 80.9427 5.70607Z" fill="white"/>
<path d="M150.931 15.7058C151.649 15.6187 152.464 15.6476 153.166 15.815C154.968 16.2436 156.009 17.4613 156.945 18.9745H152.658H146.514C146.682 18.6837 146.855 18.3923 147.043 18.1138C148.02 16.6727 149.253 16.0242 150.931 15.7058Z" fill="#1E2A2E"/>
</svg>
