<svg width="107" height="139" viewBox="0 0 107 139" fill="none" xmlns="http://www.w3.org/2000/svg">
<path d="M66.4809 4.44758C67.6715 -1.48194 76.148 -1.48194 77.3386 4.44758C78.3496 9.4828 85.0762 10.5482 87.5937 6.07183C90.5583 0.800436 98.6199 3.41982 97.9199 9.42704C97.3255 14.5282 103.394 17.6201 107.171 14.1408C111.62 10.0435 118.477 15.0259 115.955 20.5228C113.814 25.1906 118.629 30.0063 123.297 27.8646C128.794 25.3425 133.776 32.2002 129.679 36.6487C126.2 40.4262 129.292 46.4944 134.393 45.8999C140.4 45.1999 143.019 53.2616 137.748 56.2262C133.272 58.7437 134.337 65.4703 139.372 66.4813C145.302 67.6719 145.302 76.1484 139.372 77.339C134.337 78.35 133.272 85.0766 137.748 87.5941C143.019 90.5587 140.4 98.6204 134.393 97.9204C129.292 97.3259 126.2 103.394 129.679 107.172C133.776 111.62 128.794 118.478 123.297 115.956C118.629 113.814 113.814 118.63 115.955 123.298C118.477 128.794 111.62 133.777 107.171 129.68C103.394 126.2 97.3255 129.292 97.9199 134.393C98.6199 140.4 90.5583 143.02 87.5937 137.748C85.0762 133.272 78.3496 134.338 77.3386 139.373C76.148 145.302 67.6715 145.302 66.4809 139.373C65.4699 134.338 58.7433 133.272 56.2258 137.748C53.2611 143.02 45.1995 140.4 45.8995 134.393C46.4939 129.292 40.4258 126.2 36.6482 129.68C32.1998 133.777 25.3421 128.794 27.8642 123.298C30.0059 118.63 25.1902 113.814 20.5223 115.956C15.0255 118.478 10.0431 111.62 14.1404 107.172C17.6197 103.394 14.5278 97.3259 9.42661 97.9204C3.4194 98.6204 0.800007 90.5587 6.0714 87.5941C10.5478 85.0766 9.48236 78.35 4.44715 77.339C-1.48237 76.1484 -1.48236 67.6719 4.44715 66.4813C9.48237 65.4703 10.5478 58.7437 6.0714 56.2262C0.800009 53.2616 3.41939 45.1999 9.42661 45.8999C14.5278 46.4944 17.6197 40.4262 14.1404 36.6487C10.0431 32.2002 15.0255 25.3426 20.5224 27.8646C25.1902 30.0063 30.0059 25.1906 27.8642 20.5228C25.3421 15.0259 32.1998 10.0435 36.6482 14.1408C40.4258 17.6201 46.4939 14.5282 45.8995 9.42704C45.1995 3.41982 53.2611 0.800434 56.2258 6.07183C58.7433 10.5482 65.4699 9.48279 66.4809 4.44758Z" fill="url(#paint0_linear_678_1250)"/>
<defs>
<linearGradient id="paint0_linear_678_1250" x1="-22.5903" y1="-22.5898" x2="202.084" y2="41.6606" gradientUnits="userSpaceOnUse">
<stop stop-color="#6CEFEF"/>
<stop offset="0.650677" stop-color="#4648FF"/>
<stop offset="1" stop-color="#712FFF"/>
</linearGradient>
</defs>
</svg>
