<svg width="312" height="84" viewBox="0 0 312 84" fill="none" xmlns="http://www.w3.org/2000/svg">
<rect width="106" height="36" rx="10" fill="#1E2A2E"/>
<path d="M24 15C29.583 15 33 16.9425 33 18C33 19.0575 29.583 21 24 21C18.417 21 15 19.0575 15 18C15 16.9425 18.417 15 24 15ZM24 13.5C18.201 13.5 13.5 15.5145 13.5 18C13.5 20.4855 18.201 22.5 24 22.5C29.799 22.5 34.5 20.4855 34.5 18C34.5 15.5145 29.799 13.5 24 13.5Z" fill="#63EAFB"/>
<path d="M24 16.5C23.7033 16.5 23.4133 16.588 23.1666 16.7528C22.92 16.9176 22.7277 17.1519 22.6142 17.426C22.5006 17.7001 22.4709 18.0017 22.5288 18.2926C22.5867 18.5836 22.7296 18.8509 22.9393 19.0607C23.1491 19.2704 23.4164 19.4133 23.7074 19.4712C23.9983 19.5291 24.2999 19.4994 24.574 19.3858C24.8481 19.2723 25.0824 19.08 25.2472 18.8334C25.412 18.5867 25.5 18.2967 25.5 18C25.5 17.6022 25.342 17.2206 25.0607 16.9393C24.7794 16.658 24.3978 16.5 24 16.5Z" fill="#63EAFB"/>
<path d="M19.8435 10.1299C21.3563 10.1299 24.2963 12.5126 26.598 16.4996C29.3895 21.3349 29.4158 25.2649 28.5 25.7936C28.3944 25.8484 28.2761 25.8743 28.1573 25.8686C26.6445 25.8686 23.7038 23.4866 21.402 19.4996C18.6105 14.6644 18.5843 10.7344 19.5 10.2056C19.6059 10.1507 19.7244 10.1241 19.8435 10.1299ZM19.8428 8.63063C19.4605 8.62372 19.0833 8.71872 18.75 8.90588C16.5975 10.1486 17.2035 15.2276 20.103 20.2496C22.566 24.5171 25.893 27.3694 28.158 27.3694C28.5401 27.3757 28.917 27.2802 29.25 27.0926C31.4025 25.8506 30.7965 20.7716 27.897 15.7496C25.434 11.4821 22.107 8.62988 19.842 8.62988L19.8428 8.63063Z" fill="#63EAFB"/>
<path d="M28.1573 10.1302C28.2761 10.1245 28.3944 10.1504 28.5 10.2052C29.4158 10.7347 29.3895 14.6647 26.598 19.4999C24.2955 23.4869 21.3555 25.8697 19.8428 25.8697C19.7239 25.8753 19.6056 25.8495 19.5 25.7947C18.5843 25.2644 18.6105 21.3344 21.402 16.4999C23.7045 12.5129 26.6445 10.1302 28.1573 10.1302ZM28.1573 8.63019C25.8923 8.63019 22.566 11.4832 20.1023 15.7499C17.2043 20.7719 16.5975 25.8509 18.75 27.0929C19.0832 27.2806 19.4604 27.3762 19.8428 27.3697C22.1078 27.3697 25.434 24.5167 27.8978 20.2499C30.7958 15.2279 31.4025 10.1489 29.25 8.90694C28.9168 8.71926 28.5396 8.62373 28.1573 8.63019Z" fill="#63EAFB"/>
<path d="M39.168 23V11.8H42.96C43.8453 11.8 44.5707 11.9493 45.136 12.248C45.7013 12.5467 46.1173 12.9467 46.384 13.448C46.6613 13.9387 46.8 14.4987 46.8 15.128C46.8 15.7253 46.6613 16.28 46.384 16.792C46.1173 17.2933 45.696 17.6987 45.12 18.008C44.544 18.3067 43.808 18.456 42.912 18.456H40.768V23H39.168ZM45.056 23L42.64 18.024H44.4L46.912 23H45.056ZM40.768 17.24H42.848C43.6373 17.24 44.2187 17.048 44.592 16.664C44.9653 16.2693 45.152 15.768 45.152 15.16C45.152 14.5413 44.9707 14.0507 44.608 13.688C44.2453 13.3253 43.6587 13.144 42.848 13.144H40.768V17.24ZM51.4748 23.192C50.7068 23.192 50.0241 23.016 49.4268 22.664C48.8294 22.312 48.3601 21.8213 48.0188 21.192C47.6881 20.5627 47.5228 19.832 47.5228 19C47.5228 18.1467 47.6881 17.4053 48.0188 16.776C48.3601 16.136 48.8294 15.64 49.4268 15.288C50.0241 14.9253 50.7174 14.744 51.5068 14.744C52.2961 14.744 52.9734 14.92 53.5388 15.272C54.1041 15.624 54.5414 16.0933 54.8508 16.68C55.1601 17.256 55.3148 17.896 55.3148 18.6C55.3148 18.7067 55.3094 18.824 55.2988 18.952C55.2988 19.0693 55.2934 19.2027 55.2828 19.352H48.6908V18.216H53.7148C53.6828 17.544 53.4588 17.0213 53.0428 16.648C52.6268 16.264 52.1094 16.072 51.4908 16.072C51.0534 16.072 50.6534 16.1733 50.2908 16.376C49.9281 16.568 49.6348 16.856 49.4108 17.24C49.1974 17.6133 49.0908 18.088 49.0908 18.664V19.112C49.0908 19.7093 49.1974 20.216 49.4108 20.632C49.6348 21.0373 49.9281 21.3467 50.2908 21.56C50.6534 21.7627 51.0481 21.864 51.4748 21.864C51.9868 21.864 52.4081 21.752 52.7388 21.528C53.0694 21.304 53.3148 21 53.4748 20.616H55.0748C54.9361 21.1067 54.7014 21.5493 54.3708 21.944C54.0401 22.328 53.6294 22.632 53.1388 22.856C52.6588 23.08 52.1041 23.192 51.4748 23.192ZM59.2844 23.192C58.623 23.192 58.0737 23.08 57.6364 22.856C57.199 22.632 56.8737 22.3333 56.6604 21.96C56.447 21.576 56.3404 21.1653 56.3404 20.728C56.3404 20.1947 56.479 19.7413 56.7564 19.368C57.0337 18.984 57.4284 18.6907 57.9404 18.488C58.4524 18.2853 59.0657 18.184 59.7804 18.184H61.8764C61.8764 17.7147 61.807 17.3253 61.6684 17.016C61.5297 16.7067 61.3217 16.4773 61.0444 16.328C60.7777 16.168 60.4364 16.088 60.0204 16.088C59.5404 16.088 59.1297 16.2053 58.7884 16.44C58.447 16.664 58.2337 17 58.1484 17.448H56.5484C56.6124 16.8827 56.8044 16.4027 57.1244 16.008C57.455 15.6027 57.8764 15.2933 58.3884 15.08C58.9004 14.856 59.4444 14.744 60.0204 14.744C60.7777 14.744 61.4124 14.8773 61.9244 15.144C62.4364 15.4107 62.8204 15.7893 63.0764 16.28C63.343 16.76 63.4764 17.336 63.4764 18.008V23H62.0844L61.9564 21.64C61.839 21.8533 61.7004 22.056 61.5404 22.248C61.3804 22.44 61.1884 22.6053 60.9644 22.744C60.751 22.8827 60.5004 22.9893 60.2124 23.064C59.935 23.1493 59.6257 23.192 59.2844 23.192ZM59.5884 21.896C59.9297 21.896 60.239 21.8267 60.5164 21.688C60.7937 21.5493 61.0284 21.3627 61.2204 21.128C61.423 20.8827 61.5724 20.6107 61.6684 20.312C61.775 20.0027 61.8337 19.688 61.8444 19.368V19.32H59.9404C59.4817 19.32 59.1084 19.3787 58.8204 19.496C58.543 19.6027 58.3404 19.752 58.2124 19.944C58.0844 20.136 58.0204 20.36 58.0204 20.616C58.0204 20.8827 58.079 21.112 58.1964 21.304C58.3244 21.4853 58.5057 21.6293 58.7404 21.736C58.975 21.8427 59.2577 21.896 59.5884 21.896ZM68.7666 23.192C67.988 23.192 67.2946 23.016 66.6866 22.664C66.0786 22.3013 65.5986 21.8053 65.2466 21.176C64.9053 20.5467 64.7346 19.816 64.7346 18.984C64.7346 18.1413 64.9053 17.4053 65.2466 16.776C65.5986 16.136 66.0786 15.64 66.6866 15.288C67.2946 14.9253 67.988 14.744 68.7666 14.744C69.748 14.744 70.5693 15 71.2306 15.512C71.892 16.024 72.3133 16.7173 72.4946 17.592H70.8306C70.724 17.1227 70.4786 16.76 70.0946 16.504C69.7213 16.248 69.2733 16.12 68.7506 16.12C68.324 16.12 67.9293 16.232 67.5666 16.456C67.204 16.6693 66.9106 16.9893 66.6866 17.416C66.4733 17.832 66.3666 18.3493 66.3666 18.968C66.3666 19.4267 66.4306 19.8373 66.5586 20.2C66.6866 20.552 66.8573 20.8507 67.0706 21.096C67.2946 21.3413 67.5506 21.528 67.8386 21.656C68.1266 21.7733 68.4306 21.832 68.7506 21.832C69.1026 21.832 69.4173 21.7787 69.6946 21.672C69.9826 21.5547 70.2226 21.384 70.4146 21.16C70.6173 20.936 70.756 20.6693 70.8306 20.36H72.4946C72.3133 21.2133 71.892 21.9013 71.2306 22.424C70.5693 22.936 69.748 23.192 68.7666 23.192ZM77.0429 23C76.5309 23 76.0882 22.92 75.7149 22.76C75.3415 22.6 75.0535 22.3333 74.8509 21.96C74.6482 21.5867 74.5469 21.08 74.5469 20.44V16.296H73.1549V14.936H74.5469L74.7389 12.92H76.1469V14.936H78.4349V16.296H76.1469V20.456C76.1469 20.9147 76.2429 21.2293 76.4349 21.4C76.6269 21.56 76.9575 21.64 77.4269 21.64H78.3549V23H77.0429ZM80.3592 23.08C80.0499 23.08 79.7939 22.984 79.5912 22.792C79.3992 22.5893 79.3032 22.3493 79.3032 22.072C79.3032 21.784 79.3992 21.544 79.5912 21.352C79.7939 21.1493 80.0499 21.048 80.3592 21.048C80.6686 21.048 80.9192 21.1493 81.1112 21.352C81.3032 21.544 81.3992 21.784 81.3992 22.072C81.3992 22.3493 81.3032 22.5893 81.1112 22.792C80.9192 22.984 80.6686 23.08 80.3592 23.08ZM81.1407 26.52V25.16H81.7807C82.1647 25.16 82.4367 25.08 82.5967 24.92C82.7567 24.76 82.8367 24.4933 82.8367 24.12V14.936H84.4367V24.152C84.4367 24.7067 84.3407 25.16 84.1487 25.512C83.9674 25.864 83.6954 26.12 83.3327 26.28C82.9701 26.44 82.5327 26.52 82.0207 26.52H81.1407ZM83.6527 13.416C83.3434 13.416 83.0874 13.32 82.8847 13.128C82.6927 12.936 82.5967 12.6907 82.5967 12.392C82.5967 12.104 82.6927 11.8693 82.8847 11.688C83.0874 11.496 83.3434 11.4 83.6527 11.4C83.9514 11.4 84.1967 11.496 84.3887 11.688C84.5914 11.8693 84.6927 12.104 84.6927 12.392C84.6927 12.6907 84.5914 12.936 84.3887 13.128C84.1967 13.32 83.9514 13.416 83.6527 13.416ZM89.348 23.192C88.6653 23.192 88.068 23.08 87.556 22.856C87.044 22.632 86.6387 22.3173 86.34 21.912C86.0413 21.5067 85.86 21.032 85.796 20.488H87.428C87.4813 20.744 87.5827 20.9787 87.732 21.192C87.892 21.4053 88.1053 21.576 88.372 21.704C88.6493 21.832 88.9747 21.896 89.348 21.896C89.7 21.896 89.988 21.848 90.212 21.752C90.4467 21.6453 90.6173 21.5067 90.724 21.336C90.8307 21.1547 90.884 20.9627 90.884 20.76C90.884 20.4613 90.8093 20.2373 90.66 20.088C90.5213 19.928 90.308 19.8053 90.02 19.72C89.7427 19.624 89.4067 19.5387 89.012 19.464C88.6387 19.4 88.276 19.3147 87.924 19.208C87.5827 19.0907 87.2733 18.9467 86.996 18.776C86.7293 18.6053 86.516 18.392 86.356 18.136C86.196 17.8693 86.116 17.544 86.116 17.16C86.116 16.7013 86.2387 16.2907 86.484 15.928C86.7293 15.5547 87.076 15.2667 87.524 15.064C87.9827 14.8507 88.5213 14.744 89.14 14.744C90.036 14.744 90.756 14.9573 91.3 15.384C91.844 15.8107 92.164 16.4133 92.26 17.192H90.708C90.6653 16.8293 90.5053 16.552 90.228 16.36C89.9507 16.1573 89.5827 16.056 89.124 16.056C88.6653 16.056 88.3133 16.1467 88.068 16.328C87.8227 16.5093 87.7 16.7493 87.7 17.048C87.7 17.24 87.7693 17.4107 87.908 17.56C88.0467 17.7093 88.2493 17.8373 88.516 17.944C88.7933 18.04 89.1293 18.1307 89.524 18.216C90.0893 18.3227 90.596 18.456 91.044 18.616C91.492 18.776 91.8493 19.0107 92.116 19.32C92.3827 19.6293 92.516 20.072 92.516 20.648C92.5267 21.1493 92.3987 21.592 92.132 21.976C91.876 22.36 91.508 22.6587 91.028 22.872C90.5587 23.0853 89.9987 23.192 89.348 23.192Z" fill="white"/>
<rect x="118" width="194" height="36" rx="10" fill="#1E2A2E"/>
<path d="M133.712 12.1125C134.623 12.1125 135.362 11.3738 135.362 10.4625C135.362 9.55123 134.623 8.8125 133.712 8.8125C132.801 8.8125 132.062 9.55123 132.062 10.4625C132.062 11.3738 132.801 12.1125 133.712 12.1125Z" fill="#468BF1"/>
<path d="M133.712 19.592C134.623 19.592 135.362 18.8533 135.362 17.942C135.362 17.0307 134.623 16.292 133.712 16.292C132.801 16.292 132.062 17.0307 132.062 17.942C132.062 18.8533 132.801 19.592 133.712 19.592Z" fill="#468BF1"/>
<path d="M133.712 27.0715C134.623 27.0715 135.362 26.3328 135.362 25.4215C135.362 24.5102 134.623 23.7715 133.712 23.7715C132.801 23.7715 132.062 24.5102 132.062 25.4215C132.062 26.3328 132.801 27.0715 133.712 27.0715Z" fill="#468BF1"/>
<path d="M149.758 20.0059C150.897 20.0059 151.82 19.0824 151.82 17.9434C151.82 16.8043 150.897 15.8809 149.758 15.8809C148.619 15.8809 147.695 16.8043 147.695 17.9434C147.695 19.0824 148.619 20.0059 149.758 20.0059Z" fill="#468BF1"/>
<path d="M136.953 18.9325H140.441C140.579 18.6942 140.728 18.4629 140.888 18.2398L141.097 17.9386C140.878 17.6374 140.67 17.3261 140.461 16.9346H136.953C137.029 17.1928 137.076 17.4589 137.092 17.7277V18.1494C137.077 18.4151 137.03 18.6779 136.953 18.9325Z" fill="#D3E4FF"/>
<path d="M143.502 14.9066L143.273 14.495L142.995 14.0332L142.558 13.1597C141.306 10.6497 140.014 9.49512 137.41 9.49512H136.953C137.047 9.82129 137.094 10.1594 137.092 10.4991C137.094 10.8388 137.047 11.177 136.953 11.5031H137.41C139.02 11.5031 139.726 12.0151 140.7 13.7922L140.938 14.2239L141.177 14.7059C142.617 17.6174 143.661 18.7218 146.076 18.9628C145.997 18.6341 145.957 18.297 145.957 17.9588C145.958 17.6193 146.004 17.2815 146.096 16.9548H146.155C144.983 16.8444 144.307 16.3323 143.502 14.9066Z" fill="#468BF1"/>
<path d="M141.673 20.2983L141.435 20.7501L141.057 21.5132L140.819 21.965L140.59 22.3766C139.676 23.993 138.961 24.4649 137.41 24.4649H136.953C137.031 24.7227 137.077 24.989 137.092 25.2581V25.6295C137.077 25.8985 137.03 26.1647 136.953 26.4227H137.669C140.064 26.3524 141.355 25.1878 142.637 22.7682L143.174 21.6939L143.383 21.3023L143.562 20.971C143.705 20.7202 143.865 20.4788 144.039 20.2481C143.422 20.0152 142.85 19.6754 142.349 19.2441C142.096 19.5765 141.87 19.929 141.673 20.2983Z" fill="#D3E4FF"/>
<path d="M162.08 23.192C160.981 23.192 160.032 22.952 159.232 22.472C158.443 21.9813 157.829 21.304 157.392 20.44C156.965 19.5653 156.752 18.552 156.752 17.4C156.752 16.2587 156.965 15.2507 157.392 14.376C157.829 13.5013 158.443 12.824 159.232 12.344C160.032 11.8533 160.981 11.608 162.08 11.608C163.392 11.608 164.453 11.9227 165.264 12.552C166.085 13.1813 166.608 14.0667 166.832 15.208H165.072C164.912 14.5467 164.581 14.0187 164.08 13.624C163.589 13.2293 162.923 13.032 162.08 13.032C161.323 13.032 160.667 13.208 160.112 13.56C159.557 13.912 159.131 14.4133 158.832 15.064C158.533 15.7147 158.384 16.4933 158.384 17.4C158.384 18.3067 158.533 19.0907 158.832 19.752C159.131 20.4027 159.557 20.904 160.112 21.256C160.667 21.5973 161.323 21.768 162.08 21.768C162.923 21.768 163.589 21.5813 164.08 21.208C164.581 20.824 164.912 20.3067 165.072 19.656H166.832C166.608 20.7653 166.085 21.6347 165.264 22.264C164.453 22.8827 163.392 23.192 162.08 23.192ZM168.186 23V11.48H169.786V23H168.186ZM175.183 23.192C174.426 23.192 173.743 23.016 173.135 22.664C172.538 22.312 172.063 21.8213 171.711 21.192C171.37 20.552 171.199 19.816 171.199 18.984C171.199 18.1307 171.375 17.3893 171.727 16.76C172.079 16.12 172.559 15.624 173.167 15.272C173.775 14.92 174.458 14.744 175.215 14.744C175.983 14.744 176.666 14.92 177.263 15.272C177.86 15.624 178.33 16.1147 178.671 16.744C179.023 17.3733 179.199 18.1147 179.199 18.968C179.199 19.8213 179.023 20.5627 178.671 21.192C178.33 21.8213 177.855 22.312 177.247 22.664C176.639 23.016 175.951 23.192 175.183 23.192ZM175.183 21.816C175.62 21.816 176.015 21.7093 176.367 21.496C176.73 21.2827 177.018 20.968 177.231 20.552C177.455 20.1253 177.567 19.5973 177.567 18.968C177.567 18.3387 177.46 17.816 177.247 17.4C177.034 16.9733 176.746 16.6533 176.383 16.44C176.031 16.2267 175.642 16.12 175.215 16.12C174.788 16.12 174.394 16.2267 174.031 16.44C173.668 16.6533 173.375 16.9733 173.151 17.4C172.938 17.816 172.831 18.3387 172.831 18.968C172.831 19.5973 172.938 20.1253 173.151 20.552C173.375 20.968 173.663 21.2827 174.015 21.496C174.378 21.7093 174.767 21.816 175.183 21.816ZM183.561 23.192C182.932 23.192 182.382 23.064 181.913 22.808C181.454 22.552 181.097 22.168 180.841 21.656C180.596 21.144 180.473 20.4987 180.473 19.72V14.936H182.073V19.544C182.073 20.3013 182.238 20.872 182.569 21.256C182.9 21.64 183.374 21.832 183.993 21.832C184.409 21.832 184.782 21.7307 185.113 21.528C185.454 21.3253 185.721 21.032 185.913 20.648C186.105 20.264 186.201 19.7947 186.201 19.24V14.936H187.801V23H186.377L186.265 21.624C186.02 22.1147 185.662 22.4987 185.193 22.776C184.724 23.0533 184.18 23.192 183.561 23.192ZM193.096 23.192C192.328 23.192 191.65 23.0107 191.064 22.648C190.477 22.2747 190.018 21.7733 189.688 21.144C189.368 20.504 189.208 19.7787 189.208 18.968C189.208 18.1467 189.368 17.4213 189.688 16.792C190.018 16.1627 190.477 15.6667 191.064 15.304C191.661 14.9307 192.344 14.744 193.112 14.744C193.741 14.744 194.296 14.872 194.776 15.128C195.256 15.3733 195.629 15.7253 195.896 16.184V11.48H197.496V23H196.056L195.896 21.752C195.736 21.9973 195.528 22.232 195.272 22.456C195.016 22.6693 194.706 22.8453 194.344 22.984C193.981 23.1227 193.565 23.192 193.096 23.192ZM193.352 21.8C193.853 21.8 194.296 21.6827 194.68 21.448C195.064 21.2133 195.357 20.8827 195.56 20.456C195.773 20.0293 195.88 19.5333 195.88 18.968C195.88 18.4027 195.773 17.912 195.56 17.496C195.357 17.0693 195.064 16.7387 194.68 16.504C194.296 16.2587 193.853 16.136 193.352 16.136C192.872 16.136 192.44 16.2587 192.056 16.504C191.672 16.7387 191.373 17.0693 191.16 17.496C190.946 17.912 190.84 18.4027 190.84 18.968C190.84 19.5333 190.946 20.0293 191.16 20.456C191.373 20.8827 191.672 21.2133 192.056 21.448C192.44 21.6827 192.872 21.8 193.352 21.8ZM202.897 23V11.8H204.497V23H202.897ZM206.275 23V14.936H207.715L207.811 16.312C208.067 15.832 208.43 15.4533 208.899 15.176C209.368 14.888 209.907 14.744 210.515 14.744C211.155 14.744 211.704 14.872 212.163 15.128C212.622 15.384 212.979 15.7733 213.235 16.296C213.491 16.808 213.619 17.4533 213.619 18.232V23H212.019V18.392C212.019 17.6453 211.854 17.08 211.523 16.696C211.192 16.312 210.712 16.12 210.083 16.12C209.667 16.12 209.294 16.2213 208.963 16.424C208.632 16.616 208.366 16.904 208.163 17.288C207.971 17.672 207.875 18.1413 207.875 18.696V23H206.275ZM215.617 23V13.848C215.617 13.2933 215.708 12.84 215.889 12.488C216.081 12.136 216.359 11.88 216.721 11.72C217.084 11.56 217.522 11.48 218.033 11.48H218.977V12.84H218.29C217.906 12.84 217.628 12.92 217.457 13.08C217.297 13.2293 217.217 13.496 217.217 13.88V23H215.617ZM214.433 16.296V14.936H219.154V16.296H214.433ZM220.299 23V14.936H221.739L221.883 16.456C222.065 16.0933 222.299 15.7893 222.587 15.544C222.875 15.288 223.211 15.0907 223.595 14.952C223.99 14.8133 224.438 14.744 224.939 14.744V16.44H224.363C224.033 16.44 223.718 16.4827 223.419 16.568C223.121 16.6427 222.854 16.776 222.619 16.968C222.395 17.16 222.219 17.4213 222.091 17.752C221.963 18.0827 221.899 18.4933 221.899 18.984V23H220.299ZM228.601 23.192C227.939 23.192 227.39 23.08 226.953 22.856C226.515 22.632 226.19 22.3333 225.977 21.96C225.763 21.576 225.657 21.1653 225.657 20.728C225.657 20.1947 225.795 19.7413 226.073 19.368C226.35 18.984 226.745 18.6907 227.257 18.488C227.769 18.2853 228.382 18.184 229.097 18.184H231.193C231.193 17.7147 231.123 17.3253 230.985 17.016C230.846 16.7067 230.638 16.4773 230.361 16.328C230.094 16.168 229.753 16.088 229.337 16.088C228.857 16.088 228.446 16.2053 228.105 16.44C227.763 16.664 227.55 17 227.465 17.448H225.865C225.929 16.8827 226.121 16.4027 226.441 16.008C226.771 15.6027 227.193 15.2933 227.705 15.08C228.217 14.856 228.761 14.744 229.337 14.744C230.094 14.744 230.729 14.8773 231.241 15.144C231.753 15.4107 232.137 15.7893 232.393 16.28C232.659 16.76 232.793 17.336 232.793 18.008V23H231.401L231.273 21.64C231.155 21.8533 231.017 22.056 230.857 22.248C230.697 22.44 230.505 22.6053 230.281 22.744C230.067 22.8827 229.817 22.9893 229.529 23.064C229.251 23.1493 228.942 23.192 228.601 23.192ZM228.905 21.896C229.246 21.896 229.555 21.8267 229.833 21.688C230.11 21.5493 230.345 21.3627 230.537 21.128C230.739 20.8827 230.889 20.6107 230.985 20.312C231.091 20.0027 231.15 19.688 231.161 19.368V19.32H229.257C228.798 19.32 228.425 19.3787 228.137 19.496C227.859 19.6027 227.657 19.752 227.529 19.944C227.401 20.136 227.337 20.36 227.337 20.616C227.337 20.8827 227.395 21.112 227.513 21.304C227.641 21.4853 227.822 21.6293 228.057 21.736C228.291 21.8427 228.574 21.896 228.905 21.896ZM237.475 23.192C236.792 23.192 236.195 23.08 235.683 22.856C235.171 22.632 234.766 22.3173 234.467 21.912C234.168 21.5067 233.987 21.032 233.923 20.488H235.555C235.608 20.744 235.71 20.9787 235.859 21.192C236.019 21.4053 236.232 21.576 236.499 21.704C236.776 21.832 237.102 21.896 237.475 21.896C237.827 21.896 238.115 21.848 238.339 21.752C238.574 21.6453 238.744 21.5067 238.851 21.336C238.958 21.1547 239.011 20.9627 239.011 20.76C239.011 20.4613 238.936 20.2373 238.787 20.088C238.648 19.928 238.435 19.8053 238.147 19.72C237.87 19.624 237.534 19.5387 237.139 19.464C236.766 19.4 236.403 19.3147 236.051 19.208C235.71 19.0907 235.4 18.9467 235.123 18.776C234.856 18.6053 234.643 18.392 234.483 18.136C234.323 17.8693 234.243 17.544 234.243 17.16C234.243 16.7013 234.366 16.2907 234.611 15.928C234.856 15.5547 235.203 15.2667 235.651 15.064C236.11 14.8507 236.648 14.744 237.267 14.744C238.163 14.744 238.883 14.9573 239.427 15.384C239.971 15.8107 240.291 16.4133 240.387 17.192H238.835C238.792 16.8293 238.632 16.552 238.355 16.36C238.078 16.1573 237.71 16.056 237.251 16.056C236.792 16.056 236.44 16.1467 236.195 16.328C235.95 16.5093 235.827 16.7493 235.827 17.048C235.827 17.24 235.896 17.4107 236.035 17.56C236.174 17.7093 236.376 17.8373 236.643 17.944C236.92 18.04 237.256 18.1307 237.651 18.216C238.216 18.3227 238.723 18.456 239.171 18.616C239.619 18.776 239.976 19.0107 240.243 19.32C240.51 19.6293 240.643 20.072 240.643 20.648C240.654 21.1493 240.526 21.592 240.259 21.976C240.003 22.36 239.635 22.6587 239.155 22.872C238.686 23.0853 238.126 23.192 237.475 23.192ZM245.047 23C244.535 23 244.092 22.92 243.719 22.76C243.345 22.6 243.057 22.3333 242.855 21.96C242.652 21.5867 242.551 21.08 242.551 20.44V16.296H241.159V14.936H242.551L242.743 12.92H244.151V14.936H246.439V16.296H244.151V20.456C244.151 20.9147 244.247 21.2293 244.439 21.4C244.631 21.56 244.961 21.64 245.431 21.64H246.359V23H245.047ZM247.723 23V14.936H249.163L249.307 16.456C249.488 16.0933 249.723 15.7893 250.011 15.544C250.299 15.288 250.635 15.0907 251.019 14.952C251.414 14.8133 251.862 14.744 252.363 14.744V16.44H251.787C251.456 16.44 251.142 16.4827 250.843 16.568C250.544 16.6427 250.278 16.776 250.043 16.968C249.819 17.16 249.643 17.4213 249.515 17.752C249.387 18.0827 249.323 18.4933 249.323 18.984V23H247.723ZM256.312 23.192C255.683 23.192 255.134 23.064 254.664 22.808C254.206 22.552 253.848 22.168 253.592 21.656C253.347 21.144 253.224 20.4987 253.224 19.72V14.936H254.824V19.544C254.824 20.3013 254.99 20.872 255.32 21.256C255.651 21.64 256.126 21.832 256.744 21.832C257.16 21.832 257.534 21.7307 257.864 21.528C258.206 21.3253 258.472 21.032 258.664 20.648C258.856 20.264 258.952 19.7947 258.952 19.24V14.936H260.552V23H259.128L259.016 21.624C258.771 22.1147 258.414 22.4987 257.944 22.776C257.475 23.0533 256.931 23.192 256.312 23.192ZM265.991 23.192C265.212 23.192 264.519 23.016 263.911 22.664C263.303 22.3013 262.823 21.8053 262.471 21.176C262.13 20.5467 261.959 19.816 261.959 18.984C261.959 18.1413 262.13 17.4053 262.471 16.776C262.823 16.136 263.303 15.64 263.911 15.288C264.519 14.9253 265.212 14.744 265.991 14.744C266.972 14.744 267.794 15 268.455 15.512C269.116 16.024 269.538 16.7173 269.719 17.592H268.055C267.948 17.1227 267.703 16.76 267.319 16.504C266.946 16.248 266.498 16.12 265.975 16.12C265.548 16.12 265.154 16.232 264.791 16.456C264.428 16.6693 264.135 16.9893 263.911 17.416C263.698 17.832 263.591 18.3493 263.591 18.968C263.591 19.4267 263.655 19.8373 263.783 20.2C263.911 20.552 264.082 20.8507 264.295 21.096C264.519 21.3413 264.775 21.528 265.063 21.656C265.351 21.7733 265.655 21.832 265.975 21.832C266.327 21.832 266.642 21.7787 266.919 21.672C267.207 21.5547 267.447 21.384 267.639 21.16C267.842 20.936 267.98 20.6693 268.055 20.36H269.719C269.538 21.2133 269.116 21.9013 268.455 22.424C267.794 22.936 266.972 23.192 265.991 23.192ZM274.267 23C273.755 23 273.313 22.92 272.939 22.76C272.566 22.6 272.278 22.3333 272.075 21.96C271.873 21.5867 271.771 21.08 271.771 20.44V16.296H270.379V14.936H271.771L271.963 12.92H273.371V14.936H275.659V16.296H273.371V20.456C273.371 20.9147 273.467 21.2293 273.659 21.4C273.851 21.56 274.182 21.64 274.651 21.64H275.579V23H274.267ZM279.904 23.192C279.274 23.192 278.725 23.064 278.256 22.808C277.797 22.552 277.44 22.168 277.184 21.656C276.938 21.144 276.816 20.4987 276.816 19.72V14.936H278.416V19.544C278.416 20.3013 278.581 20.872 278.912 21.256C279.242 21.64 279.717 21.832 280.336 21.832C280.752 21.832 281.125 21.7307 281.456 21.528C281.797 21.3253 282.064 21.032 282.256 20.648C282.448 20.264 282.544 19.7947 282.544 19.24V14.936H284.144V23H282.72L282.608 21.624C282.362 22.1147 282.005 22.4987 281.536 22.776C281.066 23.0533 280.522 23.192 279.904 23.192ZM285.854 23V14.936H287.294L287.438 16.456C287.62 16.0933 287.854 15.7893 288.142 15.544C288.43 15.288 288.766 15.0907 289.15 14.952C289.545 14.8133 289.993 14.744 290.494 14.744V16.44H289.918C289.588 16.44 289.273 16.4827 288.974 16.568C288.676 16.6427 288.409 16.776 288.174 16.968C287.95 17.16 287.774 17.4213 287.646 17.752C287.518 18.0827 287.454 18.4933 287.454 18.984V23H285.854ZM294.897 23.192C294.129 23.192 293.447 23.016 292.849 22.664C292.252 22.312 291.783 21.8213 291.441 21.192C291.111 20.5627 290.945 19.832 290.945 19C290.945 18.1467 291.111 17.4053 291.441 16.776C291.783 16.136 292.252 15.64 292.849 15.288C293.447 14.9253 294.14 14.744 294.929 14.744C295.719 14.744 296.396 14.92 296.961 15.272C297.527 15.624 297.964 16.0933 298.273 16.68C298.583 17.256 298.737 17.896 298.737 18.6C298.737 18.7067 298.732 18.824 298.721 18.952C298.721 19.0693 298.716 19.2027 298.705 19.352H292.113V18.216H297.137C297.105 17.544 296.881 17.0213 296.465 16.648C296.049 16.264 295.532 16.072 294.913 16.072C294.476 16.072 294.076 16.1733 293.713 16.376C293.351 16.568 293.057 16.856 292.833 17.24C292.62 17.6133 292.513 18.088 292.513 18.664V19.112C292.513 19.7093 292.62 20.216 292.833 20.632C293.057 21.0373 293.351 21.3467 293.713 21.56C294.076 21.7627 294.471 21.864 294.897 21.864C295.409 21.864 295.831 21.752 296.161 21.528C296.492 21.304 296.737 21 296.897 20.616H298.497C298.359 21.1067 298.124 21.5493 297.793 21.944C297.463 22.328 297.052 22.632 296.561 22.856C296.081 23.08 295.527 23.192 294.897 23.192Z" fill="white"/>
<rect y="48" width="101.26" height="36" rx="10" fill="#1E2A2E"/>
<g clip-path="url(#clip0_678_979)">
<path d="M22.63 77.9554C22.2999 77.9554 21.9918 77.8674 21.7057 77.7134L18.7786 75.9747C18.3385 75.7327 18.5586 75.6446 18.6906 75.6006C19.2848 75.4026 19.3948 75.3585 20.011 75.0064C20.0771 74.9623 20.1651 74.9843 20.2311 75.0284L22.476 76.3709C22.564 76.4149 22.674 76.4149 22.74 76.3709L31.5212 71.2871C31.6092 71.2431 31.6533 71.1551 31.6533 71.045V60.8993C31.6533 60.7893 31.6092 60.7013 31.5212 60.6573L22.74 55.5954C22.652 55.5514 22.542 55.5514 22.476 55.5954L13.6948 60.6573C13.6067 60.7014 13.5627 60.8114 13.5627 60.8994V71.045C13.5627 71.1331 13.6067 71.2431 13.6948 71.2871L16.0937 72.6735C17.3922 73.3337 18.2064 72.5635 18.2064 71.7933V61.7796C18.2064 61.6476 18.3165 61.5155 18.4705 61.5155H19.593C19.725 61.5155 19.857 61.6256 19.857 61.7796V71.7932C19.857 73.5318 18.9107 74.5441 17.2601 74.5441C16.7539 74.5441 16.3578 74.5441 15.2354 73.994L12.9245 72.6735C12.3524 72.3433 12.0002 71.7272 12.0002 71.0669V60.9214C12.0002 60.2612 12.3524 59.645 12.9245 59.3148L21.7057 54.2311C22.2559 53.923 23.0041 53.923 23.5543 54.2311L32.3355 59.3148C32.9076 59.6449 33.2598 60.2611 33.2598 60.9214V71.067C33.2598 71.7272 32.9076 72.3434 32.3355 72.6735L23.5543 77.7575C23.2682 77.8895 22.9381 77.9555 22.63 77.9555M25.3369 70.979C21.4856 70.979 20.6933 69.2184 20.6933 67.7219C20.6933 67.5899 20.8033 67.4578 20.9574 67.4578H22.1018C22.2338 67.4578 22.3439 67.5458 22.3439 67.6779C22.52 68.8442 23.0261 69.4165 25.3589 69.4165C27.2076 69.4165 27.9999 68.9984 27.9999 68.0081C27.9999 67.4358 27.7799 67.0177 24.8968 66.7315C22.498 66.4894 21.0014 65.9613 21.0014 64.0467C21.0014 62.2639 22.4979 61.2076 25.0068 61.2076C27.8238 61.2076 29.2103 62.1759 29.3864 64.2887C29.3864 64.3547 29.3644 64.4207 29.3204 64.4867C29.2763 64.5307 29.2103 64.5747 29.1443 64.5747H27.9999C27.8898 64.5747 27.7799 64.4867 27.7578 64.3767C27.4937 63.1663 26.8115 62.7702 25.0068 62.7702C22.9822 62.7702 22.74 63.4744 22.74 64.0026C22.74 64.6408 23.0261 64.8388 25.7551 65.1909C28.4621 65.543 29.7385 66.0493 29.7385 67.942C29.7165 69.8787 28.132 70.979 25.3369 70.979Z" fill="#76F55B"/>
</g>
<path d="M36.428 71V59.8H38.028L43.74 68.392V59.8H45.34V71H43.74L38.028 62.424V71H36.428ZM50.798 71.192C50.0407 71.192 49.358 71.016 48.75 70.664C48.1527 70.312 47.678 69.8213 47.326 69.192C46.9847 68.552 46.814 67.816 46.814 66.984C46.814 66.1307 46.99 65.3893 47.342 64.76C47.694 64.12 48.174 63.624 48.782 63.272C49.39 62.92 50.0727 62.744 50.83 62.744C51.598 62.744 52.2807 62.92 52.878 63.272C53.4753 63.624 53.9447 64.1147 54.286 64.744C54.638 65.3733 54.814 66.1147 54.814 66.968C54.814 67.8213 54.638 68.5627 54.286 69.192C53.9447 69.8213 53.47 70.312 52.862 70.664C52.254 71.016 51.566 71.192 50.798 71.192ZM50.798 69.816C51.2353 69.816 51.63 69.7093 51.982 69.496C52.3447 69.2827 52.6327 68.968 52.846 68.552C53.07 68.1253 53.182 67.5973 53.182 66.968C53.182 66.3387 53.0753 65.816 52.862 65.4C52.6487 64.9733 52.3607 64.6533 51.998 64.44C51.646 64.2267 51.2567 64.12 50.83 64.12C50.4033 64.12 50.0087 64.2267 49.646 64.44C49.2833 64.6533 48.99 64.9733 48.766 65.4C48.5527 65.816 48.446 66.3387 48.446 66.968C48.446 67.5973 48.5527 68.1253 48.766 68.552C48.99 68.968 49.278 69.2827 49.63 69.496C49.9927 69.7093 50.382 69.816 50.798 69.816ZM59.8001 71.192C59.0321 71.192 58.3548 71.0107 57.7681 70.648C57.1815 70.2747 56.7228 69.7733 56.3921 69.144C56.0721 68.504 55.9121 67.7787 55.9121 66.968C55.9121 66.1467 56.0721 65.4213 56.3921 64.792C56.7228 64.1627 57.1815 63.6667 57.7681 63.304C58.3655 62.9307 59.0481 62.744 59.8161 62.744C60.4455 62.744 61.0001 62.872 61.4801 63.128C61.9601 63.3733 62.3335 63.7253 62.6001 64.184V59.48H64.2001V71H62.7601L62.6001 69.752C62.4401 69.9973 62.2321 70.232 61.9761 70.456C61.7201 70.6693 61.4108 70.8453 61.0481 70.984C60.6855 71.1227 60.2695 71.192 59.8001 71.192ZM60.0561 69.8C60.5575 69.8 61.0001 69.6827 61.3841 69.448C61.7681 69.2133 62.0615 68.8827 62.2641 68.456C62.4775 68.0293 62.5841 67.5333 62.5841 66.968C62.5841 66.4027 62.4775 65.912 62.2641 65.496C62.0615 65.0693 61.7681 64.7387 61.3841 64.504C61.0001 64.2587 60.5575 64.136 60.0561 64.136C59.5761 64.136 59.1441 64.2587 58.7601 64.504C58.3761 64.7387 58.0775 65.0693 57.8641 65.496C57.6508 65.912 57.5441 66.4027 57.5441 66.968C57.5441 67.5333 57.6508 68.0293 57.8641 68.456C58.0775 68.8827 58.3761 69.2133 58.7601 69.448C59.1441 69.6827 59.5761 69.8 60.0561 69.8ZM69.556 71.192C68.788 71.192 68.1053 71.016 67.508 70.664C66.9107 70.312 66.4413 69.8213 66.1 69.192C65.7693 68.5627 65.604 67.832 65.604 67C65.604 66.1467 65.7693 65.4053 66.1 64.776C66.4413 64.136 66.9107 63.64 67.508 63.288C68.1053 62.9253 68.7987 62.744 69.588 62.744C70.3773 62.744 71.0547 62.92 71.62 63.272C72.1853 63.624 72.6227 64.0933 72.932 64.68C73.2413 65.256 73.396 65.896 73.396 66.6C73.396 66.7067 73.3907 66.824 73.38 66.952C73.38 67.0693 73.3747 67.2027 73.364 67.352H66.772V66.216H71.796C71.764 65.544 71.54 65.0213 71.124 64.648C70.708 64.264 70.1907 64.072 69.572 64.072C69.1347 64.072 68.7347 64.1733 68.372 64.376C68.0093 64.568 67.716 64.856 67.492 65.24C67.2787 65.6133 67.172 66.088 67.172 66.664V67.112C67.172 67.7093 67.2787 68.216 67.492 68.632C67.716 69.0373 68.0093 69.3467 68.372 69.56C68.7347 69.7627 69.1293 69.864 69.556 69.864C70.068 69.864 70.4893 69.752 70.82 69.528C71.1507 69.304 71.396 69 71.556 68.616H73.156C73.0173 69.1067 72.7827 69.5493 72.452 69.944C72.1213 70.328 71.7107 70.632 71.22 70.856C70.74 71.08 70.1853 71.192 69.556 71.192ZM75.3336 71.08C75.0243 71.08 74.7683 70.984 74.5656 70.792C74.3736 70.5893 74.2776 70.3493 74.2776 70.072C74.2776 69.784 74.3736 69.544 74.5656 69.352C74.7683 69.1493 75.0243 69.048 75.3336 69.048C75.643 69.048 75.8936 69.1493 76.0856 69.352C76.2776 69.544 76.3736 69.784 76.3736 70.072C76.3736 70.3493 76.2776 70.5893 76.0856 70.792C75.8936 70.984 75.643 71.08 75.3336 71.08ZM76.1151 74.52V73.16H76.7551C77.1391 73.16 77.4111 73.08 77.5711 72.92C77.7311 72.76 77.8111 72.4933 77.8111 72.12V62.936H79.4111V72.152C79.4111 72.7067 79.3151 73.16 79.1231 73.512C78.9418 73.864 78.6698 74.12 78.3071 74.28C77.9445 74.44 77.5071 74.52 76.9951 74.52H76.1151ZM78.6271 61.416C78.3178 61.416 78.0618 61.32 77.8591 61.128C77.6671 60.936 77.5711 60.6907 77.5711 60.392C77.5711 60.104 77.6671 59.8693 77.8591 59.688C78.0618 59.496 78.3178 59.4 78.6271 59.4C78.9258 59.4 79.1711 59.496 79.3631 59.688C79.5658 59.8693 79.6671 60.104 79.6671 60.392C79.6671 60.6907 79.5658 60.936 79.3631 61.128C79.1711 61.32 78.9258 61.416 78.6271 61.416ZM84.3224 71.192C83.6397 71.192 83.0424 71.08 82.5304 70.856C82.0184 70.632 81.6131 70.3173 81.3144 69.912C81.0157 69.5067 80.8344 69.032 80.7704 68.488H82.4024C82.4557 68.744 82.5571 68.9787 82.7064 69.192C82.8664 69.4053 83.0797 69.576 83.3464 69.704C83.6237 69.832 83.9491 69.896 84.3224 69.896C84.6744 69.896 84.9624 69.848 85.1864 69.752C85.4211 69.6453 85.5917 69.5067 85.6984 69.336C85.8051 69.1547 85.8584 68.9627 85.8584 68.76C85.8584 68.4613 85.7837 68.2373 85.6344 68.088C85.4957 67.928 85.2824 67.8053 84.9944 67.72C84.7171 67.624 84.3811 67.5387 83.9864 67.464C83.6131 67.4 83.2504 67.3147 82.8984 67.208C82.5571 67.0907 82.2477 66.9467 81.9704 66.776C81.7037 66.6053 81.4904 66.392 81.3304 66.136C81.1704 65.8693 81.0904 65.544 81.0904 65.16C81.0904 64.7013 81.2131 64.2907 81.4584 63.928C81.7037 63.5547 82.0504 63.2667 82.4984 63.064C82.9571 62.8507 83.4957 62.744 84.1144 62.744C85.0104 62.744 85.7304 62.9573 86.2744 63.384C86.8184 63.8107 87.1384 64.4133 87.2344 65.192H85.6824C85.6397 64.8293 85.4797 64.552 85.2024 64.36C84.9251 64.1573 84.5571 64.056 84.0984 64.056C83.6397 64.056 83.2877 64.1467 83.0424 64.328C82.7971 64.5093 82.6744 64.7493 82.6744 65.048C82.6744 65.24 82.7437 65.4107 82.8824 65.56C83.0211 65.7093 83.2237 65.8373 83.4904 65.944C83.7677 66.04 84.1037 66.1307 84.4984 66.216C85.0637 66.3227 85.5704 66.456 86.0184 66.616C86.4664 66.776 86.8237 67.0107 87.0904 67.32C87.3571 67.6293 87.4904 68.072 87.4904 68.648C87.5011 69.1493 87.3731 69.592 87.1064 69.976C86.8504 70.36 86.4824 70.6587 86.0024 70.872C85.5331 71.0853 84.9731 71.192 84.3224 71.192Z" fill="white"/>
<rect x="118" y="48" width="107.2" height="36" rx="10" fill="#1E2A2E"/>
<g clip-path="url(#clip1_678_979)">
<path d="M137.682 56.6714C136.676 55.4779 135.81 54.2657 135.633 54.014C135.629 54.0096 135.623 54.006 135.618 54.0036C135.612 54.0012 135.606 54 135.6 54C135.594 54 135.588 54.0012 135.582 54.0036C135.577 54.006 135.572 54.0096 135.568 54.014C135.391 54.2657 134.524 55.4779 133.518 56.6714C124.884 67.6832 134.878 75.1147 134.878 75.1147L134.962 75.1706C135.037 76.3175 135.223 77.9679 135.223 77.9679H135.968C135.968 77.9679 136.154 76.3268 136.229 75.1707L136.313 75.1053C136.322 75.1147 146.316 67.6833 137.682 56.6714ZM135.595 74.9468C135.595 74.9468 135.148 74.5645 135.027 74.3688V74.3501L135.568 62.3592C135.568 62.3219 135.623 62.3219 135.623 62.3592L136.164 74.3501V74.3688C136.043 74.5645 135.595 74.9468 135.595 74.9468" fill="#01EC64"/>
</g>
<path d="M144.368 71V59.8H146.256L150.048 67.368L153.824 59.8H155.728V71H154.128V62.6L150.656 69.432H149.424L145.968 62.616V71H144.368ZM161.175 71.192C160.418 71.192 159.735 71.016 159.127 70.664C158.53 70.312 158.055 69.8213 157.703 69.192C157.362 68.552 157.191 67.816 157.191 66.984C157.191 66.1307 157.367 65.3893 157.719 64.76C158.071 64.12 158.551 63.624 159.159 63.272C159.767 62.92 160.45 62.744 161.207 62.744C161.975 62.744 162.658 62.92 163.255 63.272C163.853 63.624 164.322 64.1147 164.663 64.744C165.015 65.3733 165.191 66.1147 165.191 66.968C165.191 67.8213 165.015 68.5627 164.663 69.192C164.322 69.8213 163.847 70.312 163.239 70.664C162.631 71.016 161.943 71.192 161.175 71.192ZM161.175 69.816C161.613 69.816 162.007 69.7093 162.359 69.496C162.722 69.2827 163.01 68.968 163.223 68.552C163.447 68.1253 163.559 67.5973 163.559 66.968C163.559 66.3387 163.453 65.816 163.239 65.4C163.026 64.9733 162.738 64.6533 162.375 64.44C162.023 64.2267 161.634 64.12 161.207 64.12C160.781 64.12 160.386 64.2267 160.023 64.44C159.661 64.6533 159.367 64.9733 159.143 65.4C158.93 65.816 158.823 66.3387 158.823 66.968C158.823 67.5973 158.93 68.1253 159.143 68.552C159.367 68.968 159.655 69.2827 160.007 69.496C160.37 69.7093 160.759 69.816 161.175 69.816ZM166.594 71V62.936H168.034L168.13 64.312C168.386 63.832 168.748 63.4533 169.218 63.176C169.687 62.888 170.226 62.744 170.834 62.744C171.474 62.744 172.023 62.872 172.482 63.128C172.94 63.384 173.298 63.7733 173.554 64.296C173.81 64.808 173.938 65.4533 173.938 66.232V71H172.338V66.392C172.338 65.6453 172.172 65.08 171.842 64.696C171.511 64.312 171.031 64.12 170.402 64.12C169.986 64.12 169.612 64.2213 169.282 64.424C168.951 64.616 168.684 64.904 168.482 65.288C168.29 65.672 168.194 66.1413 168.194 66.696V71H166.594ZM178.784 74.712C178.048 74.712 177.398 74.616 176.832 74.424C176.267 74.2427 175.83 73.96 175.52 73.576C175.211 73.192 175.056 72.7227 175.056 72.168C175.056 71.88 175.12 71.5867 175.248 71.288C175.376 71 175.584 70.7227 175.872 70.456C176.16 70.1893 176.55 69.9493 177.04 69.736L177.936 70.456C177.392 70.6587 177.024 70.8987 176.832 71.176C176.651 71.464 176.56 71.7413 176.56 72.008C176.56 72.328 176.656 72.5947 176.848 72.808C177.04 73.0213 177.302 73.1813 177.632 73.288C177.974 73.3947 178.358 73.448 178.784 73.448C179.2 73.448 179.563 73.3893 179.872 73.272C180.182 73.1547 180.422 72.9893 180.592 72.776C180.763 72.5627 180.848 72.312 180.848 72.024C180.848 71.6827 180.72 71.3947 180.464 71.16C180.208 70.936 179.718 70.8027 178.992 70.76C178.384 70.7173 177.867 70.6587 177.44 70.584C177.024 70.5093 176.667 70.4187 176.368 70.312C176.08 70.2053 175.835 70.088 175.632 69.96C175.44 69.832 175.275 69.6987 175.136 69.56V69.192L176.736 67.544L178.032 67.992L176.288 69.608L176.624 68.888C176.742 68.9627 176.854 69.0373 176.96 69.112C177.067 69.176 177.211 69.2347 177.392 69.288C177.574 69.3413 177.819 69.3893 178.128 69.432C178.438 69.4747 178.843 69.5173 179.344 69.56C180.07 69.6133 180.651 69.7413 181.088 69.944C181.536 70.1467 181.862 70.4187 182.064 70.76C182.267 71.1013 182.368 71.5067 182.368 71.976C182.368 72.4347 182.24 72.872 181.984 73.288C181.739 73.704 181.35 74.0453 180.816 74.312C180.294 74.5787 179.616 74.712 178.784 74.712ZM178.784 68.52C178.102 68.52 177.52 68.392 177.04 68.136C176.571 67.88 176.208 67.5333 175.952 67.096C175.707 66.6587 175.584 66.1733 175.584 65.64C175.584 65.096 175.707 64.6107 175.952 64.184C176.208 63.7467 176.576 63.4 177.056 63.144C177.536 62.8773 178.112 62.744 178.784 62.744C179.456 62.744 180.027 62.8773 180.496 63.144C180.976 63.4 181.339 63.7467 181.584 64.184C181.84 64.6107 181.968 65.096 181.968 65.64C181.968 66.1733 181.84 66.6587 181.584 67.096C181.339 67.5333 180.976 67.88 180.496 68.136C180.027 68.392 179.456 68.52 178.784 68.52ZM178.784 67.24C179.307 67.24 179.723 67.1067 180.032 66.84C180.342 66.5627 180.496 66.1627 180.496 65.64C180.496 65.1173 180.342 64.7227 180.032 64.456C179.723 64.1787 179.307 64.04 178.784 64.04C178.262 64.04 177.84 64.1787 177.52 64.456C177.2 64.7227 177.04 65.1173 177.04 65.64C177.04 66.1627 177.2 66.5627 177.52 66.84C177.84 67.1067 178.262 67.24 178.784 67.24ZM180.096 64.2L179.712 62.936H183.024V64.04L180.096 64.2ZM187.517 71.192C186.759 71.192 186.077 71.016 185.469 70.664C184.871 70.312 184.397 69.8213 184.045 69.192C183.703 68.552 183.533 67.816 183.533 66.984C183.533 66.1307 183.709 65.3893 184.061 64.76C184.413 64.12 184.893 63.624 185.501 63.272C186.109 62.92 186.791 62.744 187.549 62.744C188.317 62.744 188.999 62.92 189.597 63.272C190.194 63.624 190.663 64.1147 191.005 64.744C191.357 65.3733 191.533 66.1147 191.533 66.968C191.533 67.8213 191.357 68.5627 191.005 69.192C190.663 69.8213 190.189 70.312 189.581 70.664C188.973 71.016 188.285 71.192 187.517 71.192ZM187.517 69.816C187.954 69.816 188.349 69.7093 188.701 69.496C189.063 69.2827 189.351 68.968 189.565 68.552C189.789 68.1253 189.901 67.5973 189.901 66.968C189.901 66.3387 189.794 65.816 189.581 65.4C189.367 64.9733 189.079 64.6533 188.717 64.44C188.365 64.2267 187.975 64.12 187.549 64.12C187.122 64.12 186.727 64.2267 186.365 64.44C186.002 64.6533 185.709 64.9733 185.485 65.4C185.271 65.816 185.165 66.3387 185.165 66.968C185.165 67.5973 185.271 68.1253 185.485 68.552C185.709 68.968 185.997 69.2827 186.349 69.496C186.711 69.7093 187.101 69.816 187.517 69.816ZM193.015 71V59.8H196.455C197.756 59.8 198.834 60.0293 199.687 60.488C200.54 60.9467 201.17 61.5973 201.575 62.44C201.991 63.272 202.199 64.264 202.199 65.416C202.199 66.568 201.991 67.56 201.575 68.392C201.17 69.224 200.54 69.8693 199.687 70.328C198.844 70.776 197.767 71 196.455 71H193.015ZM194.615 69.656H196.391C197.426 69.656 198.247 69.4853 198.855 69.144C199.463 68.8027 199.895 68.3173 200.151 67.688C200.418 67.048 200.551 66.2907 200.551 65.416C200.551 64.5307 200.418 63.768 200.151 63.128C199.895 62.488 199.463 61.9973 198.855 61.656C198.247 61.3147 197.426 61.144 196.391 61.144H194.615V69.656ZM203.644 71V59.8H207.788C208.567 59.8 209.218 59.928 209.74 60.184C210.263 60.4293 210.652 60.7707 210.908 61.208C211.175 61.6347 211.308 62.12 211.308 62.664C211.308 63.2293 211.186 63.704 210.94 64.088C210.695 64.472 210.37 64.7707 209.964 64.984C209.57 65.1867 209.143 65.304 208.684 65.336L208.908 65.176C209.399 65.1867 209.847 65.32 210.252 65.576C210.658 65.8213 210.978 66.152 211.212 66.568C211.447 66.984 211.564 67.4427 211.564 67.944C211.564 68.52 211.426 69.0427 211.148 69.512C210.871 69.9707 210.46 70.3333 209.916 70.6C209.372 70.8667 208.706 71 207.916 71H203.644ZM205.244 69.672H207.708C208.412 69.672 208.956 69.512 209.34 69.192C209.735 68.8613 209.932 68.3973 209.932 67.8C209.932 67.2133 209.73 66.744 209.324 66.392C208.93 66.04 208.38 65.864 207.676 65.864H205.244V69.672ZM205.244 64.632H207.612C208.284 64.632 208.796 64.4773 209.148 64.168C209.5 63.848 209.676 63.4107 209.676 62.856C209.676 62.3227 209.5 61.9013 209.148 61.592C208.796 61.272 208.268 61.112 207.564 61.112H205.244V64.632Z" fill="white"/>
<defs>
<clipPath id="clip0_678_979">
<rect width="21.26" height="24" fill="white" transform="translate(12 54)"/>
</clipPath>
<clipPath id="clip1_678_979">
<rect width="11.2" height="24" fill="white" transform="translate(130 54)"/>
</clipPath>
</defs>
</svg>
