<svg width="47" height="47" viewBox="0 0 47 47" fill="none" xmlns="http://www.w3.org/2000/svg">
<path d="M39.6667 6.79013C37.5271 4.62971 34.979 2.91671 32.1709 1.75097C29.3627 0.585229 26.3505 -0.00994739 23.31 0.000125755C10.57 0.000125755 0.186667 10.3835 0.186667 23.1235C0.186667 27.2068 1.26 31.1735 3.26667 34.6735L0 46.6668L12.25 43.4468C15.6333 45.2901 19.4367 46.2701 23.31 46.2701C36.05 46.2701 46.4333 35.8868 46.4333 23.1468C46.4333 16.9635 44.03 11.1535 39.6667 6.79013ZM23.31 42.3501C19.8567 42.3501 16.4733 41.4168 13.51 39.6668L12.81 39.2468L5.53 41.1601L7.46667 34.0668L7 33.3435C5.08094 30.2799 4.06216 26.7384 4.06 23.1235C4.06 12.5301 12.6933 3.89679 23.2867 3.89679C28.42 3.89679 33.25 5.90346 36.8667 9.54346C38.6578 11.3258 40.0771 13.4461 41.0424 15.7812C42.0078 18.1164 42.4998 20.62 42.49 23.1468C42.5367 33.7401 33.9033 42.3501 23.31 42.3501ZM33.8567 27.9768C33.2733 27.6968 30.4267 26.2968 29.9133 26.0868C29.3767 25.9001 29.0033 25.8068 28.6067 26.3668C28.21 26.9501 27.1133 28.2568 26.7867 28.6301C26.46 29.0268 26.11 29.0735 25.5267 28.7701C24.9433 28.4901 23.0767 27.8601 20.8833 25.9001C19.1567 24.3601 18.0133 22.4701 17.6633 21.8868C17.3367 21.3035 17.6167 21.0001 17.92 20.6968C18.1767 20.4401 18.5033 20.0201 18.7833 19.6935C19.0633 19.3668 19.18 19.1101 19.3667 18.7368C19.5533 18.3401 19.46 18.0135 19.32 17.7335C19.18 17.4535 18.0133 14.6068 17.5467 13.4401C17.08 12.3201 16.59 12.4601 16.24 12.4368H15.12C14.7233 12.4368 14.1167 12.5768 13.58 13.1601C13.0667 13.7435 11.5733 15.1435 11.5733 17.9901C11.5733 20.8368 13.65 23.5901 13.93 23.9635C14.21 24.3601 18.0133 30.1935 23.8 32.6901C25.1767 33.2968 26.25 33.6468 27.09 33.9035C28.4667 34.3468 29.7267 34.2768 30.73 34.1368C31.85 33.9735 34.16 32.7368 34.6267 31.3835C35.1167 30.0301 35.1167 28.8868 34.9533 28.6301C34.79 28.3735 34.44 28.2568 33.8567 27.9768Z" fill="white"/>
</svg>
