<svg width="56" height="56" viewBox="0 0 56 56" fill="none" xmlns="http://www.w3.org/2000/svg">
<path d="M28 9.33301C29.995 9.33301 32.0413 9.38434 34.0247 9.46834L36.3673 9.58034L38.6097 9.71334L40.7097 9.85567L42.6277 10.005C44.7094 10.1634 46.6685 11.0514 48.1599 12.5124C49.6513 13.9735 50.5792 15.9139 50.7803 17.992L50.8737 18.9837L51.0487 21.107C51.212 23.3073 51.3333 25.706 51.3333 27.9997C51.3333 30.2933 51.212 32.692 51.0487 34.8923L50.8737 37.0157L50.7803 38.0073C50.5791 40.0858 49.6509 42.0265 48.159 43.4876C46.6672 44.9487 44.7075 45.8365 42.6253 45.9943L40.712 46.1413L38.612 46.286L36.3673 46.419L34.0247 46.531C32.0176 46.6179 30.0089 46.6631 28 46.6663C25.9911 46.6631 23.9824 46.6179 21.9753 46.531L19.6327 46.419L17.3903 46.286L15.2903 46.1413L13.3723 45.9943C11.2906 45.8359 9.33146 44.948 7.8401 43.4869C6.34874 42.0259 5.42078 40.0854 5.21966 38.0073L5.12633 37.0157L4.95133 34.8923C4.77361 32.599 4.67866 30.2999 4.66666 27.9997C4.66666 25.706 4.788 23.3073 4.95133 21.107L5.12633 18.9837L5.21966 17.992C5.4207 15.9143 6.34832 13.9741 7.83921 12.5131C9.3301 11.0521 11.2886 10.1639 13.37 10.005L15.2857 9.85567L17.3857 9.71334L19.6303 9.58034L21.973 9.46834C23.9808 9.38137 25.9903 9.33625 28 9.33301ZM28 13.9997C26.075 13.9997 24.094 14.051 22.1667 14.1303L19.8847 14.24L17.6937 14.3683L15.6357 14.5083L13.7503 14.6553C12.7591 14.7247 11.8246 15.1433 11.1129 15.8367C10.4011 16.53 9.95828 17.4533 9.863 18.4423C9.59 21.2633 9.33333 24.775 9.33333 27.9997C9.33333 31.2243 9.59 34.736 9.863 37.557C10.0613 39.5917 11.676 41.1737 13.7503 41.344L15.6357 41.4887L17.6937 41.6287L19.8847 41.7593L22.1667 41.869C24.094 41.9483 26.075 41.9997 28 41.9997C29.925 41.9997 31.906 41.9483 33.8333 41.869L36.1153 41.7593L38.3063 41.631L40.3643 41.491L42.2497 41.344C43.2409 41.2746 44.1754 40.856 44.8871 40.1627C45.5989 39.4693 46.0417 38.5461 46.137 37.557C46.41 34.736 46.6667 31.2243 46.6667 27.9997C46.6667 24.775 46.41 21.2633 46.137 18.4423C46.0417 17.4533 45.5989 16.53 44.8871 15.8367C44.1754 15.1433 43.2409 14.7247 42.2497 14.6553L40.3643 14.5107L38.3063 14.3707L36.1153 14.24L33.8333 14.1303C31.89 14.0469 29.9451 14.0034 28 13.9997ZM23.3333 22.3413C23.3332 22.1133 23.3887 21.8887 23.4952 21.687C23.6016 21.4853 23.7557 21.3127 23.9441 21.1841C24.1325 21.0555 24.3494 20.9749 24.576 20.9493C24.8026 20.9237 25.032 20.9538 25.2443 21.037L25.4333 21.1303L35.2333 26.7863C35.4285 26.8989 35.5936 27.057 35.7146 27.247C35.8356 27.4371 35.909 27.6535 35.9284 27.878C35.9479 28.1024 35.9129 28.3283 35.8264 28.5363C35.7399 28.7444 35.6045 28.9285 35.4317 29.073L35.2333 29.213L25.4333 34.8713C25.2358 34.9857 25.0134 35.05 24.7854 35.0588C24.5573 35.0675 24.3306 35.0204 24.1249 34.9215C23.9193 34.8225 23.7409 34.6748 23.6054 34.4912C23.4699 34.3076 23.3813 34.0937 23.3473 33.868L23.3333 33.658V22.3413Z" fill="white"/>
</svg>
